<mxfile host="app.diagrams.net" modified="2024-05-31T12:14:38.839Z" agent="Mozilla/5.0 (Windows NT 10.0; Win64; x64) AppleWebKit/537.36 (KHTML, like Gecko) Chrome/109.0.0.0 Safari/537.36 SLBrowser/9.0.3.5211 SLBChan/33" etag="nwg4LNod4mIdoRCAgCnD" version="24.4.10" type="github">
  <diagram name="Page-1" id="74b105a0-9070-1c63-61bc-23e55f88626e">
    <mxGraphModel dx="1720" dy="721" grid="1" gridSize="10" guides="1" tooltips="1" connect="1" arrows="1" fold="1" page="1" pageScale="1.5" pageWidth="1169" pageHeight="826" background="none" math="0" shadow="0">
      <root>
        <mxCell id="0" style=";html=1;" />
        <mxCell id="1" style=";html=1;" parent="0" />
        <mxCell id="lPzJSW8wRPPHgE-3Pk_J-3" value="" style="edgeStyle=orthogonalEdgeStyle;rounded=0;orthogonalLoop=1;jettySize=auto;html=1;entryX=0;entryY=0.5;entryDx=0;entryDy=0;" edge="1" parent="1" source="lPzJSW8wRPPHgE-3Pk_J-1" target="lPzJSW8wRPPHgE-3Pk_J-11">
          <mxGeometry relative="1" as="geometry">
            <mxPoint x="400" y="230" as="targetPoint" />
            <Array as="points">
              <mxPoint x="400" y="240" />
            </Array>
          </mxGeometry>
        </mxCell>
        <mxCell id="lPzJSW8wRPPHgE-3Pk_J-24" value="&lt;font style=&quot;font-size: 18px;&quot;&gt;服务发现&lt;/font&gt;" style="edgeLabel;html=1;align=center;verticalAlign=middle;resizable=0;points=[];" vertex="1" connectable="0" parent="lPzJSW8wRPPHgE-3Pk_J-3">
          <mxGeometry x="-0.4489" y="2" relative="1" as="geometry">
            <mxPoint as="offset" />
          </mxGeometry>
        </mxCell>
        <mxCell id="lPzJSW8wRPPHgE-3Pk_J-5" value="" style="edgeStyle=orthogonalEdgeStyle;rounded=0;orthogonalLoop=1;jettySize=auto;html=1;" edge="1" parent="1" source="lPzJSW8wRPPHgE-3Pk_J-1" target="lPzJSW8wRPPHgE-3Pk_J-4">
          <mxGeometry relative="1" as="geometry" />
        </mxCell>
        <mxCell id="lPzJSW8wRPPHgE-3Pk_J-1" value="&lt;font style=&quot;font-size: 24px;&quot;&gt;调用方&lt;/font&gt;" style="rounded=0;whiteSpace=wrap;html=1;fillColor=#FF0000;" vertex="1" parent="1">
          <mxGeometry x="340" y="510" width="120" height="60" as="geometry" />
        </mxCell>
        <mxCell id="lPzJSW8wRPPHgE-3Pk_J-7" value="" style="edgeStyle=orthogonalEdgeStyle;rounded=0;orthogonalLoop=1;jettySize=auto;html=1;" edge="1" parent="1" source="lPzJSW8wRPPHgE-3Pk_J-4" target="lPzJSW8wRPPHgE-3Pk_J-6">
          <mxGeometry relative="1" as="geometry" />
        </mxCell>
        <mxCell id="lPzJSW8wRPPHgE-3Pk_J-4" value="&lt;font style=&quot;font-size: 24px;&quot;&gt;负载均衡&lt;/font&gt;" style="whiteSpace=wrap;html=1;rounded=0;fillColor=#33FFFF;" vertex="1" parent="1">
          <mxGeometry x="540" y="510" width="120" height="60" as="geometry" />
        </mxCell>
        <mxCell id="lPzJSW8wRPPHgE-3Pk_J-6" value="&lt;font style=&quot;font-size: 24px;&quot;&gt;编码，序列化&lt;/font&gt;" style="whiteSpace=wrap;html=1;rounded=0;fillColor=#99FFFF;" vertex="1" parent="1">
          <mxGeometry x="740" y="380" width="120" height="320" as="geometry" />
        </mxCell>
        <mxCell id="lPzJSW8wRPPHgE-3Pk_J-8" value="&lt;font style=&quot;font-size: 24px;&quot;&gt;提供方C&lt;/font&gt;" style="whiteSpace=wrap;html=1;rounded=0;fillColor=#FF8E1C;" vertex="1" parent="1">
          <mxGeometry x="1010" y="630" width="120" height="60" as="geometry" />
        </mxCell>
        <mxCell id="lPzJSW8wRPPHgE-3Pk_J-9" value="&lt;font style=&quot;font-size: 24px;&quot;&gt;提供方B&lt;/font&gt;" style="whiteSpace=wrap;html=1;rounded=0;fillColor=#FF8E1C;" vertex="1" parent="1">
          <mxGeometry x="1010" y="510" width="120" height="60" as="geometry" />
        </mxCell>
        <mxCell id="lPzJSW8wRPPHgE-3Pk_J-10" value="&lt;font style=&quot;font-size: 24px;&quot;&gt;提供方A&lt;/font&gt;" style="whiteSpace=wrap;html=1;rounded=0;fillColor=#FF8E1C;" vertex="1" parent="1">
          <mxGeometry x="1010" y="390" width="120" height="60" as="geometry" />
        </mxCell>
        <mxCell id="lPzJSW8wRPPHgE-3Pk_J-11" value="&lt;font style=&quot;font-size: 24px;&quot;&gt;注册中心&lt;/font&gt;" style="rounded=1;whiteSpace=wrap;html=1;fillColor=#007FFF;" vertex="1" parent="1">
          <mxGeometry x="620" y="210" width="120" height="60" as="geometry" />
        </mxCell>
        <mxCell id="lPzJSW8wRPPHgE-3Pk_J-14" value="" style="endArrow=classic;html=1;rounded=0;exitX=1.002;exitY=0.128;exitDx=0;exitDy=0;exitPerimeter=0;entryX=0;entryY=0.5;entryDx=0;entryDy=0;" edge="1" parent="1" source="lPzJSW8wRPPHgE-3Pk_J-6" target="lPzJSW8wRPPHgE-3Pk_J-10">
          <mxGeometry width="50" height="50" relative="1" as="geometry">
            <mxPoint x="940" y="500" as="sourcePoint" />
            <mxPoint x="990" y="450" as="targetPoint" />
          </mxGeometry>
        </mxCell>
        <mxCell id="lPzJSW8wRPPHgE-3Pk_J-15" value="" style="endArrow=classic;html=1;rounded=0;exitX=1;exitY=0.5;exitDx=0;exitDy=0;" edge="1" parent="1" source="lPzJSW8wRPPHgE-3Pk_J-6">
          <mxGeometry width="50" height="50" relative="1" as="geometry">
            <mxPoint x="860" y="551" as="sourcePoint" />
            <mxPoint x="1010" y="540" as="targetPoint" />
          </mxGeometry>
        </mxCell>
        <mxCell id="lPzJSW8wRPPHgE-3Pk_J-16" value="" style="endArrow=classic;html=1;rounded=0;entryX=0;entryY=0.5;entryDx=0;entryDy=0;" edge="1" parent="1" target="lPzJSW8wRPPHgE-3Pk_J-8">
          <mxGeometry width="50" height="50" relative="1" as="geometry">
            <mxPoint x="861" y="660" as="sourcePoint" />
            <mxPoint x="1030" y="440" as="targetPoint" />
            <Array as="points" />
          </mxGeometry>
        </mxCell>
        <mxCell id="lPzJSW8wRPPHgE-3Pk_J-17" value="" style="endArrow=classic;html=1;rounded=0;exitX=0.5;exitY=0;exitDx=0;exitDy=0;entryX=1;entryY=0.5;entryDx=0;entryDy=0;" edge="1" parent="1" source="lPzJSW8wRPPHgE-3Pk_J-10" target="lPzJSW8wRPPHgE-3Pk_J-11">
          <mxGeometry width="50" height="50" relative="1" as="geometry">
            <mxPoint x="1280" y="460" as="sourcePoint" />
            <mxPoint x="1330" y="410" as="targetPoint" />
            <Array as="points">
              <mxPoint x="1070" y="240" />
            </Array>
          </mxGeometry>
        </mxCell>
        <mxCell id="lPzJSW8wRPPHgE-3Pk_J-18" value="" style="endArrow=classic;html=1;rounded=0;exitX=1;exitY=0.5;exitDx=0;exitDy=0;entryX=1;entryY=0.5;entryDx=0;entryDy=0;" edge="1" parent="1" source="lPzJSW8wRPPHgE-3Pk_J-9" target="lPzJSW8wRPPHgE-3Pk_J-11">
          <mxGeometry width="50" height="50" relative="1" as="geometry">
            <mxPoint x="1180" y="550" as="sourcePoint" />
            <mxPoint x="1180" y="240" as="targetPoint" />
            <Array as="points">
              <mxPoint x="1210" y="540" />
              <mxPoint x="1210" y="240" />
            </Array>
          </mxGeometry>
        </mxCell>
        <mxCell id="lPzJSW8wRPPHgE-3Pk_J-19" value="" style="endArrow=classic;html=1;rounded=0;exitX=1;exitY=0.5;exitDx=0;exitDy=0;entryX=1;entryY=0.5;entryDx=0;entryDy=0;" edge="1" parent="1" source="lPzJSW8wRPPHgE-3Pk_J-8" target="lPzJSW8wRPPHgE-3Pk_J-11">
          <mxGeometry width="50" height="50" relative="1" as="geometry">
            <mxPoint x="1290" y="630" as="sourcePoint" />
            <mxPoint x="1200" y="230" as="targetPoint" />
            <Array as="points">
              <mxPoint x="1210" y="660" />
              <mxPoint x="1210" y="240" />
            </Array>
          </mxGeometry>
        </mxCell>
        <mxCell id="lPzJSW8wRPPHgE-3Pk_J-25" value="&lt;font style=&quot;font-size: 18px;&quot;&gt;服务注册&lt;/font&gt;" style="edgeLabel;html=1;align=center;verticalAlign=middle;resizable=0;points=[];" vertex="1" connectable="0" parent="lPzJSW8wRPPHgE-3Pk_J-19">
          <mxGeometry x="0.6767" relative="1" as="geometry">
            <mxPoint as="offset" />
          </mxGeometry>
        </mxCell>
        <mxCell id="lPzJSW8wRPPHgE-3Pk_J-20" value="&lt;font style=&quot;font-size: 24px;&quot;&gt;SPI&lt;/font&gt;" style="ellipse;whiteSpace=wrap;html=1;fillColor=#FFFF99;" vertex="1" parent="1">
          <mxGeometry x="740" y="30" width="120" height="80" as="geometry" />
        </mxCell>
        <mxCell id="lPzJSW8wRPPHgE-3Pk_J-21" value="" style="endArrow=classic;html=1;rounded=0;exitX=0.5;exitY=1;exitDx=0;exitDy=0;entryX=0.5;entryY=0;entryDx=0;entryDy=0;" edge="1" parent="1" source="lPzJSW8wRPPHgE-3Pk_J-20" target="lPzJSW8wRPPHgE-3Pk_J-6">
          <mxGeometry width="50" height="50" relative="1" as="geometry">
            <mxPoint x="900" y="180" as="sourcePoint" />
            <mxPoint x="950" y="130" as="targetPoint" />
          </mxGeometry>
        </mxCell>
        <mxCell id="lPzJSW8wRPPHgE-3Pk_J-28" value="&lt;font style=&quot;font-size: 18px;&quot;&gt;加载&lt;/font&gt;" style="edgeLabel;html=1;align=center;verticalAlign=middle;resizable=0;points=[];" vertex="1" connectable="0" parent="lPzJSW8wRPPHgE-3Pk_J-21">
          <mxGeometry x="-0.5185" y="1" relative="1" as="geometry">
            <mxPoint as="offset" />
          </mxGeometry>
        </mxCell>
        <mxCell id="lPzJSW8wRPPHgE-3Pk_J-22" value="" style="endArrow=classic;html=1;rounded=0;entryX=0.5;entryY=0;entryDx=0;entryDy=0;exitX=0;exitY=0.5;exitDx=0;exitDy=0;" edge="1" parent="1" source="lPzJSW8wRPPHgE-3Pk_J-20" target="lPzJSW8wRPPHgE-3Pk_J-11">
          <mxGeometry width="50" height="50" relative="1" as="geometry">
            <mxPoint x="620" y="160" as="sourcePoint" />
            <mxPoint x="670" y="110" as="targetPoint" />
            <Array as="points">
              <mxPoint x="680" y="70" />
            </Array>
          </mxGeometry>
        </mxCell>
        <mxCell id="lPzJSW8wRPPHgE-3Pk_J-27" value="&lt;font style=&quot;font-size: 18px;&quot;&gt;加载&lt;/font&gt;" style="edgeLabel;html=1;align=center;verticalAlign=middle;resizable=0;points=[];" vertex="1" connectable="0" parent="lPzJSW8wRPPHgE-3Pk_J-22">
          <mxGeometry x="0.3967" y="-1" relative="1" as="geometry">
            <mxPoint as="offset" />
          </mxGeometry>
        </mxCell>
        <mxCell id="lPzJSW8wRPPHgE-3Pk_J-23" value="" style="endArrow=classic;html=1;rounded=0;exitX=0;exitY=0.5;exitDx=0;exitDy=0;entryX=0.5;entryY=0;entryDx=0;entryDy=0;" edge="1" parent="1" source="lPzJSW8wRPPHgE-3Pk_J-20" target="lPzJSW8wRPPHgE-3Pk_J-4">
          <mxGeometry width="50" height="50" relative="1" as="geometry">
            <mxPoint x="570" y="420" as="sourcePoint" />
            <mxPoint x="620" y="370" as="targetPoint" />
            <Array as="points">
              <mxPoint x="600" y="70" />
            </Array>
          </mxGeometry>
        </mxCell>
        <mxCell id="lPzJSW8wRPPHgE-3Pk_J-26" value="&lt;font style=&quot;font-size: 18px;&quot;&gt;加载&lt;/font&gt;" style="edgeLabel;html=1;align=center;verticalAlign=middle;resizable=0;points=[];" vertex="1" connectable="0" parent="lPzJSW8wRPPHgE-3Pk_J-23">
          <mxGeometry x="-0.2747" y="-2" relative="1" as="geometry">
            <mxPoint as="offset" />
          </mxGeometry>
        </mxCell>
      </root>
    </mxGraphModel>
  </diagram>
</mxfile>
